<?xml version="1.0" encoding="utf-8"?>
<!-- Generator: Adobe Illustrator 26.5.0, SVG Export Plug-In . SVG Version: 6.00 Build 0)  -->
<svg version="1.1" id="Capa_1" xmlns="http://www.w3.org/2000/svg" xmlns:xlink="http://www.w3.org/1999/xlink" x="0px" y="0px"
	 viewBox="0 0 200 200" style="enable-background:new 0 0 200 200;" xml:space="preserve">
<style type="text/css">
	.st0{fill:#E1DCD3;}
</style>
<path class="st0" d="M136.38,139.38l-12.47-12.47c-3.24-3.24-5.06-7.64-5.06-12.23V79.72c0-2.39-0.84-4.71-2.38-6.54l-5.41-6.45
	c-1.54-1.83-2.38-4.15-2.38-6.54V39.4V13.71c0-2.81-2.28-5.09-5.09-5.09h-17.8c-2.81,0-5.09,2.28-5.09,5.09v10.32
	c0,2.09-0.74,4.12-2.08,5.72l-6,7.16c-1.35,1.61-2.08,3.64-2.08,5.73l0.04,35.33c0,1.35-0.54,2.65-1.49,3.6l-5.92,5.92
	c-0.95,0.95-2.25,1.49-3.6,1.49h-13.2c-2.81,0-5.09,2.28-5.09,5.09v15.26c0,2.81,2.28,5.09,5.09,5.09h15.26
	c2.81,0,5.09-2.28,5.09-5.09v-13.2c0-1.35,0.54-2.64,1.49-3.6l3.42-3.42c2.21-2.21,5.83-2.05,7.83,0.34
	c0.8,0.96,1.24,2.17,1.24,3.42v25.9c0,1.96-0.78,3.85-2.17,5.24l-15.36,15.36c-0.95,0.95-2.25,1.49-3.6,1.49h-13.2
	c-2.81,0-5.09,2.28-5.09,5.09v15.26c0,2.81,2.28,5.09,5.09,5.09h15.26c2.81,0,5.09-2.28,5.09-5.09v-13.2c0-1.35,0.54-2.64,1.49-3.6
	l15.36-15.36c1.39-1.39,3.27-2.17,5.24-2.17h2.32c2.81,0,5.09,2.28,5.09,5.09v29.76c0,2.53-2.05,4.58-4.58,4.58
	c-2.53,0-4.58,2.05-4.58,4.58v15.77c0,2.81,2.28,5.09,5.09,5.09h15.26c2.81,0,5.09-2.28,5.09-5.09v-15.77
	c0-2.53-2.05-4.58-4.58-4.58c-2.53,0-4.58-2.05-4.58-4.58v-29.76c0-2.81,2.28-5.09,5.09-5.09h2.32c1.96,0,3.85,0.78,5.24,2.17
	l15.36,15.36c0.95,0.95,1.49,2.25,1.49,3.6v13.2c0,2.81,2.28,5.09,5.09,5.09h15.26c2.81,0,5.09-2.28,5.09-5.09v-15.26
	c0-2.81-2.28-5.09-5.09-5.09h-13.2C138.63,140.87,137.34,140.33,136.38,139.38"/>
</svg>
