<?xml version="1.0" encoding="utf-8"?>
<!-- Generator: Adobe Illustrator 27.1.1, SVG Export Plug-In . SVG Version: 6.00 Build 0)  -->
<svg version="1.1" id="Layer_1" xmlns="http://www.w3.org/2000/svg" xmlns:xlink="http://www.w3.org/1999/xlink" x="0px" y="0px"
	 viewBox="0 0 391.6 55.41" style="enable-background:new 0 0 391.6 55.41;" xml:space="preserve">
<style type="text/css">
	.st0{fill:#010101;}
</style>
<g>
	<path class="st0" d="M91.61,2.23v6.93c0,1.23-1,2.23-2.23,2.23H58.2c-1.85,0-3.35,1.5-3.35,3.35v4.25c0,1.85,1.5,3.35,3.35,3.35
		h26.7c1.23,0,2.23,1,2.23,2.23v6.26c0,1.23-1,2.23-2.23,2.23H58.2c-1.85,0-3.35,1.5-3.35,3.35v4.25c0,1.85,1.5,3.35,3.35,3.35
		h31.17c1.23,0,2.23,1,2.23,2.23v6.93c0,1.23-1,2.23-2.23,2.23h11.95c-1.23,0-2.23-1-2.23-2.23V16.53c0-3.08,2.5-5.59,5.59-5.59
		h0.56c3.08,0,5.59-2.5,5.59-5.59V3.91c0-1.58,0.94-2.93,2.28-3.55H90.58C91.19,0.76,91.61,1.45,91.61,2.23z"/>
	<path class="st0" d="M12.51,2.23v38.43c0,1.85,1.5,3.35,3.35,3.35h19.88c1.23,0,2.23,1,2.23,2.23v6.93c0,1.23-1,2.23-2.23,2.23
		h23.91c-3.08,0-5.59-2.5-5.59-5.59c0-2.71-2.2-4.92-4.92-4.92h-2.9c-2.16,0-3.91-1.75-3.91-3.91V14.41c0-2.16,1.75-3.91,3.91-3.91
		h2.9c2.71,0,4.92-2.2,4.92-4.92c0-2.4,1.51-4.43,3.63-5.23H11.49C12.1,0.76,12.51,1.45,12.51,2.23z"/>
	<path class="st0" d="M160.31,53.18V39.1c0-1.85-1.5-3.35-3.35-3.35h-42c-1.85,0-3.35,1.5-3.35,3.35v14.08c0,1.23-1,2.23-2.23,2.23
		h53.18C161.31,55.41,160.31,54.41,160.31,53.18z"/>
	<path class="st0" d="M15.64,55.41c-2.16,0-3.91-1.75-3.91-3.91v-1.01c0-3.08-2.5-5.59-5.59-5.59H3.91c-1.58,0-2.94-0.94-3.56-2.29
		v12.79H15.64z"/>
	<path class="st0" d="M161.09,3.91v1.45c0,3.08,2.5,5.59,5.59,5.59h0.56c3.08,0,5.59,2.5,5.59,5.59v36.64c0,1.23-1,2.23-2.23,2.23
		h14.19c-1.23,0-2.23-1-2.23-2.23V14.86c0-2.16,1.75-3.91,3.91-3.91h2.23c3.08,0,5.59-2.5,5.59-5.59V3.91
		c0-1.58,0.94-2.93,2.28-3.55h-37.74C160.16,0.98,161.09,2.33,161.09,3.91z"/>
	<path class="st0" d="M116.07,25.25h39.77c2.47,0,4.47-2,4.47-4.47v-4.92c0-2.47-2-4.47-4.47-4.47h-39.77c-2.47,0-4.47,2-4.47,4.47
		v4.92C111.6,23.25,113.6,25.25,116.07,25.25z"/>
	<path class="st0" d="M354.36,51.5v-1.68c0-2.47-2-4.47-4.47-4.47h-3.46c-1.85,0-3.35-1.5-3.35-3.35v-4.02c0-1.23-1-2.23-2.23-2.23
		h-43.12c-1.85,0-3.35,1.5-3.35,3.35v14.08c0,1.23-1,2.23-2.23,2.23h66.13C356.11,55.41,354.36,53.66,354.36,51.5z"/>
	<path class="st0" d="M0.35,1.04c0.17-0.27,0.4-0.5,0.67-0.68H0.35V1.04z"/>
	<path class="st0" d="M262.42,3.91v1.45c0,3.08,2.5,5.59,5.59,5.59h2.23c2.16,0,3.91,1.75,3.91,3.91v14.19c0,3.7-3,6.7-6.7,6.7
		H198.4c-1.85,0-3.35,1.5-3.35,3.35v14.08c0,1.23-1,2.23-2.23,2.23h91.27c-1.23,0-2.23-1-2.23-2.23V14.86
		c0-2.16,1.75-3.91,3.91-3.91H288c3.08,0,5.59-2.5,5.59-5.59V3.91c0-1.58,0.94-2.93,2.28-3.55h-35.73
		C261.48,0.98,262.42,2.33,262.42,3.91z"/>
	<path class="st0" d="M391.6,0.36h-14.28c1.34,0.62,2.28,1.97,2.28,3.55v1.45c0,3.08,2.5,5.59,5.59,5.59h2.23
		c2.16,0,3.91,1.75,3.91,3.91v14.19c0,3.7-3,6.7-6.7,6.7h-25.69c-1.85,0-3.35,1.5-3.35,3.35v1.56c0,1.85,1.5,3.35,3.35,3.35h30.16
		c1.23,0,2.23,1,2.23,2.23v6.93c0,1.23-1,2.23-2.23,2.23h2.5V0.36z"/>
	<path class="st0" d="M199.52,25.25h57.64c2.47,0,4.47-2,4.47-4.47v-4.92c0-2.47-2-4.47-4.47-4.47h-57.64c-2.47,0-4.47,2-4.47,4.47
		v4.92C195.05,23.25,197.05,25.25,199.52,25.25z"/>
	<path class="st0" d="M298.83,25.25h75.52c2.47,0,4.47-2,4.47-4.47v-4.92c0-2.47-2-4.47-4.47-4.47h-75.52c-2.47,0-4.47,2-4.47,4.47
		v4.92C294.37,23.25,296.37,25.25,298.83,25.25z"/>
	<path class="st0" d="M0,41c0,0.58,0.13,1.12,0.35,1.62V1.04C0.13,1.38,0,1.79,0,2.23V41z"/>
	<path class="st0" d="M2.23,0C1.79,0,1.38,0.13,1.03,0.36h10.46C11.14,0.13,10.72,0,10.28,0H2.23z"/>
	<path class="st0" d="M59.66,0c-0.69,0-1.35,0.13-1.96,0.36h32.88C90.23,0.13,89.82,0,89.37,0H59.66z"/>
	<path class="st0" d="M198.18,0c-0.58,0-1.13,0.13-1.63,0.36h63.58c-0.5-0.23-1.05-0.36-1.63-0.36H198.18z"/>
	<polygon class="st0" points="358.27,55.41 389.1,55.41 389.1,55.41 358.27,55.41 	"/>
	<path class="st0" d="M297.49,0c-0.58,0-1.13,0.13-1.63,0.36h81.46c-0.5-0.23-1.05-0.36-1.63-0.36H297.49z"/>
	<path class="st0" d="M114.73,0c-0.58,0-1.13,0.13-1.63,0.36h45.71c-0.5-0.23-1.05-0.36-1.63-0.36H114.73z"/>
</g>
</svg>
