<?xml version="1.0" encoding="UTF-8"?>
<svg id="Layer_2" data-name="Layer 2" xmlns="http://www.w3.org/2000/svg" viewBox="0 0 49.59 49.41">
  <defs>
    <style>
      .cls-1 {
        fill: #e0dbd3;
      }
    </style>
  </defs>
  <g id="Layer_1-2" data-name="Layer 1">
    <g>
      <path class="cls-1" d="M32.86,28.31h12.36c2.41,0,4.37,1.96,4.37,4.37v12.36c0,2.41-1.96,4.37-4.37,4.37h-12.36c-2.41,0-4.37-1.96-4.37-4.37v-12.36c0-2.41,1.96-4.37,4.37-4.37Z"/>
      <path class="cls-1" d="M4.37,28.31h12.36c2.41,0,4.37,1.96,4.37,4.37v12.36c0,2.41-1.96,4.37-4.37,4.37H4.37c-2.41,0-4.37-1.96-4.37-4.37v-12.36c0-2.41,1.96-4.37,4.37-4.37Z"/>
      <path class="cls-1" d="M4.37,0h12.36c2.41,0,4.37,1.96,4.37,4.37v12.36c0,2.41-1.96,4.37-4.37,4.37H4.37c-2.41,0-4.37-1.96-4.37-4.37V4.37C0,1.96,1.96,0,4.37,0Z"/>
    </g>
  </g>
</svg>