<?xml version="1.0" encoding="utf-8"?>
<!-- Generator: Adobe Illustrator 26.5.0, SVG Export Plug-In . SVG Version: 6.00 Build 0)  -->
<svg version="1.1" id="Layer_2" xmlns="http://www.w3.org/2000/svg" xmlns:xlink="http://www.w3.org/1999/xlink" x="0px" y="0px"
	 viewBox="0 0 49.6 49.4" style="enable-background:new 0 0 49.6 49.4;" xml:space="preserve">
<style type="text/css">
	.st0{fill:#FFFFFF;}
</style>
<g id="Layer_1-2">
	<g>
		<path class="st0" d="M32.9,28.3h12.4c2.4,0,4.4,2,4.4,4.4V45c0,2.4-2,4.4-4.4,4.4H32.9c-2.4,0-4.4-2-4.4-4.4V32.7
			C28.5,30.3,30.5,28.3,32.9,28.3z"/>
		<path class="st0" d="M4.4,28.3h12.4c2.4,0,4.4,2,4.4,4.4V45c0,2.4-2,4.4-4.4,4.4H4.4C2,49.4,0,47.5,0,45V32.7
			C0,30.3,2,28.3,4.4,28.3z"/>
		<path class="st0" d="M4.4,0h12.4c2.4,0,4.4,2,4.4,4.4v12.4c0,2.4-2,4.4-4.4,4.4H4.4c-2.4,0-4.4-2-4.4-4.4V4.4C0,2,2,0,4.4,0z"/>
	</g>
</g>
</svg>
