<?xml version="1.0" encoding="utf-8"?>
<!-- Generator: Adobe Illustrator 26.5.0, SVG Export Plug-In . SVG Version: 6.00 Build 0)  -->
<svg version="1.1" id="Capa_1" xmlns="http://www.w3.org/2000/svg" xmlns:xlink="http://www.w3.org/1999/xlink" x="0px" y="0px"
	 viewBox="0 0 200 200" style="enable-background:new 0 0 200 200;" xml:space="preserve">
<style type="text/css">
	.st0{fill:#E1DCD3;}
</style>
<g>
	<g>
		<path class="st0" d="M142.12,152.69H57.88c-5.73,0-10.39-4.66-10.39-10.39V58.06c0-5.73,4.66-10.39,10.39-10.39h84.24
			c5.73,0,10.39,4.66,10.39,10.39v84.24C152.51,148.03,147.85,152.69,142.12,152.69z M57.88,49.36c-4.8,0-8.7,3.9-8.7,8.7v84.24
			c0,4.8,3.9,8.7,8.7,8.7h84.24c4.8,0,8.7-3.9,8.7-8.7V58.06c0-4.8-3.9-8.7-8.7-8.7H57.88z"/>
		<path class="st0" d="M142.12,154.83H57.88c-6.91,0-12.54-5.62-12.54-12.54V58.06c0-6.91,5.62-12.54,12.54-12.54h84.24
			c6.91,0,12.54,5.62,12.54,12.54v84.24C154.65,149.21,149.03,154.83,142.12,154.83z M57.88,51.5c-3.61,0-6.55,2.94-6.55,6.55v84.24
			c0,3.61,2.94,6.55,6.55,6.55h84.24c3.61,0,6.55-2.94,6.55-6.55V58.06c0-3.61-2.94-6.55-6.55-6.55H57.88z"/>
	</g>
</g>
</svg>
