<?xml version="1.0" encoding="UTF-8"?><svg id="Capa_1" xmlns="http://www.w3.org/2000/svg" viewBox="0 0 577 902"><path d="M468.42,643.68l-61.28-61.28c-15.94-15.94-24.9-37.56-24.9-60.1v-171.85c0-11.76-4.14-23.13-11.7-32.14l-26.6-31.71c-7.56-9-11.7-20.38-11.7-32.14V26c0-13.81-11.19-25-25-25h-87.5c-13.81,0-25,11.19-25,25v50.73c0,10.28-3.62,20.24-10.23,28.12l-29.51,35.18c-6.62,7.89-10.25,17.87-10.23,28.17l.22,173.67c0,6.64-2.63,13.01-7.32,17.71l-29.09,29.09c-4.69,4.69-11.05,7.32-17.68,7.32H26c-13.81,0-25,11.19-25,25v75c0,13.81,11.19,25,25,25H101c13.81,0,25-11.19,25-25v-64.9c0-6.63,2.63-12.99,7.32-17.68l16.81-16.81c10.84-10.84,28.65-10.07,38.5,1.68h0c3.95,4.71,6.12,10.66,6.12,16.8v127.32c0,9.66-3.84,18.92-10.67,25.75l-75.51,75.51c-4.69,4.69-11.05,7.32-17.68,7.32H26c-13.81,0-25,11.19-25,25v75c0,13.81,11.19,25,25,25H101c13.81,0,25-11.19,25-25v-64.9c0-6.63,2.63-12.99,7.32-17.68l75.51-75.51c6.83-6.83,16.09-10.67,25.75-10.67h11.42c13.81,0,25,11.19,25,25v146.25c0,12.43-10.07,22.5-22.5,22.5h0c-12.43,0-22.5,10.07-22.5,22.5v77.5c0,13.81,11.19,25,25,25h75c13.81,0,25-11.19,25-25v-77.5c0-12.43-10.07-22.5-22.5-22.5h0c-12.43,0-22.5-10.07-22.5-22.5v-146.25c0-13.81,11.19-25,25-25h11.42c9.66,0,18.92,3.84,25.75,10.67l75.51,75.51c4.69,4.69,7.32,11.05,7.32,17.68v64.89c0,13.81,11.19,25,25,25h75c13.81,0,25-11.19,25-25v-75c0-13.81-11.19-25-25-25h-64.9c-6.63,0-12.99-2.63-17.68-7.32Z"/></svg>